# xmcd
#
# Track frame offsets:
# 225
# 22924
# 41973
# 59255
# 77688
# 96100
# 115873
# 134362
# 152866
# 171104
# 190548
# 205134
# 225729
# 244670
# 262075
# 278212
# 301180
#
# Disc length: 4296 seconds
#
#
# Revision: 13
# Processed by: cddbd v1.5.2PL0 Copyright (c) Steve Scherf et al.
# Submitted via: FreeRIP 2.951 
#
DISCID=e310c511
DTITLE=Zezé Di Camargo and Luciano - Zezé Di Camargo and Luciano (1998)
DYEAR=1998
DGENRE=Sertanejo
TTITLE0=Pra Não Pensar Em Você
TTITLE1=Flor De Flamboyant
TTITLE2=Imperfeito
TTITLE3=Dois Corações E Uma História
TTITLE4=Pior É Te Perder
TTITLE5=Amores Que Vem E Que Passam
TTITLE6=Volta Pro Meu Coração
TTITLE7=Quando A Cabeça Não Pensa
TTITLE8=Seca Malvada
TTITLE9=À Queima Roupa
TTITLE10=Sabor De Pecado
TTITLE11=Meu País
TTITLE12=Fim De Festa
TTITLE13=A Mais Louca Paixão
TTITLE14=Vida, Viola E Violeiro
TTITLE15=Deus Salve A América
TTITLE16=Felicidade, Que Saudade De Você
EXTD=
EXTT0=
EXTT1=
EXTT2=
EXTT3=
EXTT4=
EXTT5=
EXTT6=
EXTT7=
EXTT8=
EXTT9=
EXTT10=
EXTT11=
EXTT12=
EXTT13=
EXTT14=
EXTT15=
EXTT16=
PLAYORDER=
